<svg width="324" height="223" xmlns="http://www.w3.org/2000/svg">
 <!-- Created with Method Draw - http://github.com/duopixel/Method-Draw/ -->
 <g>
  <title>background</title>
  <rect fill="#fff" id="canvas_background" height="225" width="326" y="-1" x="-1"/>
 </g>
 <g>
  <title>Layer 1</title>
  <g stroke="null" id="svg_5">
   <path stroke="null" id="svg_1" d="m163.963386,102.780187c-12.660667,0 -22.930735,10.270067 -22.930735,22.930612s10.270068,22.930733 22.930735,22.930733s22.930614,-10.270067 22.930614,-22.930733c0,-1.748068 -0.231321,-3.444705 -0.616937,-5.077173c16.78672,-19.524481 42.776544,-49.967867 56.658227,-67.313783c4.755847,-5.938288 -0.475378,-11.555372 -6.580941,-6.580941c-17.519499,14.267297 -47.776449,40.038777 -67.230213,56.677508c-1.658184,-0.385616 -3.386966,-0.636224 -5.16075,-0.636224zm6.555226,-42.904998c0,-3.631144 -2.949918,-6.581062 -6.580941,-6.581062s-6.581063,2.949918 -6.581063,6.581062s2.95004,6.580941 6.581063,6.580941s6.580941,-2.949918 6.580941,-6.580941zm39.486013,52.64789c0,3.631144 2.956347,6.581062 6.581063,6.581062s6.580941,-2.949918 6.580941,-6.581062s-2.956347,-6.580941 -6.580941,-6.580941s-6.581063,2.949918 -6.581063,6.580941zm-72.390962,-52.64789c-3.631023,0 -6.580941,2.949918 -6.580941,6.580941s2.949918,6.581062 6.580941,6.581062s6.580941,-2.950039 6.580941,-6.581062s-2.949918,-6.580941 -6.580941,-6.580941zm-13.162004,26.323885c0,-3.631023 -2.949918,-6.580941 -6.580941,-6.580941s-6.581063,2.949918 -6.581063,6.580941s2.949918,6.581062 6.581063,6.581062s6.580941,-2.949918 6.580941,-6.581062zm-19.742946,26.324006c0,3.631144 2.949918,6.581062 6.580941,6.581062s6.581063,-2.949918 6.581063,-6.581062s-2.95004,-6.580941 -6.581063,-6.580941s-6.580941,2.949918 -6.580941,6.580941zm92.133908,-46.06695c0,-3.631023 -2.956226,-6.580941 -6.580941,-6.580941s-6.581063,2.949918 -6.581063,6.580941s2.956347,6.581062 6.581063,6.581062s6.580941,-2.950039 6.580941,-6.581062zm44.627475,10.038746l-14.138962,18.496212c1.542463,5.591004 2.442152,11.465124 2.442152,17.557707c0,36.349773 -29.472981,65.810015 -65.8099,65.810015s-65.810021,-29.460242 -65.810021,-65.810015c0,-36.336915 29.472981,-65.809893 65.810021,-65.809893c13.54762,0 26.118282,4.106644 36.581097,11.124753l16.298241,-12.467919c-14.550172,-11.491082 -32.879355,-18.3999 -52.879338,-18.3999c-47.249517,0 -85.552966,38.303446 -85.552966,85.552958s38.303449,85.552958 85.552966,85.552958s85.552966,-38.303446 85.552966,-85.552958c0,-12.898537 -2.930631,-25.090011 -8.046257,-36.053919z"/>
  </g>
 </g>
</svg>