<svg width="580" height="400" xmlns="http://www.w3.org/2000/svg">
 <!-- Created with Method Draw - http://github.com/duopixel/Method-Draw/ -->

 <g>
  <title>background</title>
  <rect fill="#fff" id="canvas_background" height="402" width="582" y="-1" x="-1"/>
  <g display="none" overflow="visible" y="0" x="0" height="100%" width="100%" id="canvasGrid">
   <rect fill="url(#gridpattern)" stroke-width="0" y="0" x="0" height="100%" width="100%"/>
  </g>
 </g>
 <g>
  <title>Layer 1</title>
  <g transform="rotate(-45 289.99999999999994,199.99999999999994) " id="svg_21">
   <path id="svg_5" d="m279.71622,223.447019l-10.078105,0c-1.703817,0 -3.153624,-1.381317 -3.153624,-3.085134l0,-10.078105c0,-1.703817 1.381317,-3.085134 3.085134,-3.085134s3.085134,1.381317 3.085134,3.085134l0,6.992971l7.061461,0c1.703817,0 3.085134,1.381317 3.085134,3.085134s-1.381317,3.085134 -3.085134,3.085134zm-7.061461,-33.730799l0,-6.992971l7.061461,0c1.703817,0 3.085134,-1.381317 3.085134,-3.085134s-1.381317,-3.085134 -3.085134,-3.085134l-10.078105,0c-1.703817,0 -3.153624,1.381317 -3.153624,3.085134l0,10.078105c0,1.703817 1.381317,3.085134 3.085134,3.085134s3.085134,-1.381317 3.085134,-3.085134zm40.72377,0l0,-10.078105c0,-1.703817 -1.312827,-3.085134 -3.016644,-3.085134l-10.078105,0c-1.703817,0 -3.085134,1.381317 -3.085134,3.085134s1.381317,3.085134 3.085134,3.085134l6.924481,0l0,6.992971c0,1.703817 1.381317,3.085134 3.085134,3.085134s3.085134,-1.381317 3.085134,-3.085134zm0,30.645665l0,-10.078105c0,-1.703817 -1.381317,-3.085134 -3.085134,-3.085134s-3.085134,1.381317 -3.085134,3.085134l0,6.992971l-6.924481,0c-1.703817,0 -3.085134,1.381317 -3.085134,3.085134s1.381317,3.085134 3.085134,3.085134l10.078105,0c1.703817,0 3.016644,-1.381317 3.016644,-3.085134zm3.770651,-23.447019l-21.4532,0c-0.599133,-1.101804 -1.445282,-2.011507 -2.679336,-2.610846l0,-21.4532c0,-1.703817 -1.381317,-3.085134 -3.085134,-3.085134s-3.085134,1.381317 -3.085134,3.085134l0,21.4532c-1.028378,0.599133 -1.943017,1.508836 -2.542356,2.610846l-21.4532,0c-1.703817,0 -3.085134,1.381317 -3.085134,3.085134s1.381317,3.085134 3.085134,3.085134l21.4532,0c0.599339,1.101804 1.513978,2.011713 2.542356,2.610846l0,21.4532c0,1.703817 1.381317,3.085134 3.085134,3.085134s3.085134,-1.381317 3.085134,-3.085134l0,-21.4532c1.234054,-0.599133 2.079997,-1.508836 2.679336,-2.610846l21.4532,0c1.703817,0 3.085134,-1.381317 3.085134,-3.085134s-1.381317,-3.085134 -3.085134,-3.085134z"/>
   <g transform="matrix(0.20567560576449126,0,0,0.20567560576449126,0,0) " id="svg_6"/>
   <g transform="matrix(0.20567560576449126,0,0,0.20567560576449126,0,0) " id="svg_7"/>
   <g transform="matrix(0.20567560576449126,0,0,0.20567560576449126,0,0) " id="svg_8"/>
   <g transform="matrix(0.20567560576449126,0,0,0.20567560576449126,0,0) " id="svg_9"/>
   <g transform="matrix(0.20567560576449126,0,0,0.20567560576449126,0,0) " id="svg_10"/>
   <g transform="matrix(0.20567560576449126,0,0,0.20567560576449126,0,0) " id="svg_11"/>
   <g transform="matrix(0.20567560576449126,0,0,0.20567560576449126,0,0) " id="svg_12"/>
   <g transform="matrix(0.20567560576449126,0,0,0.20567560576449126,0,0) " id="svg_13"/>
   <g transform="matrix(0.20567560576449126,0,0,0.20567560576449126,0,0) " id="svg_14"/>
   <g transform="matrix(0.20567560576449126,0,0,0.20567560576449126,0,0) " id="svg_15"/>
   <g transform="matrix(0.20567560576449126,0,0,0.20567560576449126,0,0) " id="svg_16"/>
   <g transform="matrix(0.20567560576449126,0,0,0.20567560576449126,0,0) " id="svg_17"/>
   <g transform="matrix(0.20567560576449126,0,0,0.20567560576449126,0,0) " id="svg_18"/>
   <g transform="matrix(0.20567560576449126,0,0,0.20567560576449126,0,0) " id="svg_19"/>
   <g transform="matrix(0.20567560576449126,0,0,0.20567560576449126,0,0) " id="svg_20"/>
  </g>
 </g>
</svg>